<?xml version="1.0" encoding="iso-8859-1"?>
<!-- Generator: Adobe Illustrator 19.0.0, SVG Export Plug-In . SVG Version: 6.00 Build 0)  -->
<svg xmlns="http://www.w3.org/2000/svg" xmlns:xlink="http://www.w3.org/1999/xlink" version="1.1" id="Capa_1" x="0px" y="0px" viewBox="0 0 512 512" style="enable-background:new 0 0 512 512;" xml:space="preserve" width="512px" height="512px">
<g>
	<g>
		<g>
			<rect x="163.067" y="118.832" transform="matrix(0.4177 0.9086 -0.9086 0.4177 226.7811 -84.1758)" width="31.984" height="32" fill="#FFFFFF"/>
			<path d="M247.264,85.896l-31.28,14.4l13.376,29.056l18.848-8.656l34,13.44L82.656,227.24l-30.704-16.448l32-14.672     l-13.344-29.104L0,199.432v94.4l96,49.68v-72.8l64,34.272v79.248l87.888,41.872L512,294.056v-103.52L247.264,85.896z M64,290.968     l-32-16.48v-38.064l32,17.136V290.968z M155.552,266.28l-37.664-20.176L323.2,150.312l43.808,17.312L155.552,266.28z      M231.712,382.968L192,364.088v-41.952l39.712,21.28V382.968z M247.712,315.672l-56.96-30.512L408,183.816l49.984,19.76     L247.712,315.672z M480,274.28L263.712,382.424v-38.992L480,228.088V274.28z" fill="#FFFFFF"/>
			<rect x="104.897" y="145.537" transform="matrix(0.4177 0.9086 -0.9086 0.4177 217.1713 -15.7713)" width="31.984" height="32" fill="#FFFFFF"/>
		</g>
	</g>
</g>
<g>
</g>
<g>
</g>
<g>
</g>
<g>
</g>
<g>
</g>
<g>
</g>
<g>
</g>
<g>
</g>
<g>
</g>
<g>
</g>
<g>
</g>
<g>
</g>
<g>
</g>
<g>
</g>
<g>
</g>
</svg>
