<?xml version="1.0"?>
<svg xmlns="http://www.w3.org/2000/svg" height="512px" viewBox="0 -2 512 512" width="512px" class=""><g><path d="m486.398438 208.976562h-31.949219c5.714843-8.703124 10.371093-18.050781 13.871093-27.851562 2.210938-5.933594.378907-12.617188-4.550781-16.597656-4.222656-3.277344-10.101562-3.363282-14.421875-.210938-7.699218 5.445313-16.464844 9.199219-25.71875 11.015625 13.566406-21.359375 19.949219-46.5 18.210938-71.742187-.242188-6.304688-4.484375-11.746094-10.539063-13.515625-5.148437-1.390625-10.597656.765625-13.398437 5.304687-5.003906 7.871094-11.589844 14.609375-19.34375 19.789063l-.109375-.171875c4.199219-24.820313.429687-50.335938-10.769531-72.882813-2.652344-5.746093-8.679688-9.152343-14.96875-8.457031-5.269532.699219-9.445313 4.785156-10.265626 10.035156-1.542968 8.8125-4.835937 17.226563-9.675781 24.746094-.398437-.273438-.800781-.546875-1.203125-.8125-5.859375-23.917969-18.960937-45.445312-37.511718-61.640625-4.652344-4.222656-11.472657-5.027344-16.984376-2.007813-4.601562 2.648438-6.921874 8.003907-5.703124 13.171876 1.828124 8.214843 2.101562 16.703124.808593 25.015624-1.011719-.214843-2.046875-.421874-3.101562-.628906-14.433594-18.863281-34.160157-33.003906-56.660157-40.617187-5.9375-2.195313-12.613281-.363281-16.597656 4.554687-3.265625 4.210938-3.359375 10.074219-.230468 14.386719 4.519531 6.429687 7.882812 13.601563 9.929687 21.1875-1.644531.296875-3.257813.621094-4.851563.972656-20.058593-11.125-42.910156-16.199219-65.792968-14.617187-6.296875.246094-11.734375 4.488281-13.503906 10.539062-1.40625 5.148438.757812 10.609375 5.308593 13.398438 6.199219 3.933594 11.699219 8.875 16.273438 14.617187-1.835938 1.1875-3.648438 2.414063-5.4375 3.683594-22.058594-2.054687-44.253907 2.074219-64.101563 11.917969-5.742187 2.660156-9.144531 8.683594-8.460937 14.96875.695312 5.257812 4.765625 9.433594 10.003906 10.257812 6.851563 1.199219 13.46875 3.457032 19.621094 6.699219-1.449219 2.144531-2.863281 4.34375-4.242188 6.605469-20.523437 6.703125-38.855469 18.828125-53.058593 35.089844-4.222657 4.65625-5.027344 11.476562-2.007813 16.988281 2.648437 4.59375 7.988281 6.910156 13.152344 5.710937 6.570312-1.476562 13.324219-1.957031 20.035156-1.429687-.519531 2.710937-.96875 5.484375-1.351563 8.308593-8.152343 7.019532-15.25 15.175782-21.074218 24.21875h-40.425782c-14.132812.011719-25.585937 11.464844-25.601562 25.597657v25.601562c.015625 14.132813 11.46875 25.582031 25.601562 25.597657v213.335937c0 4.710937 3.820313 8.53125 8.53125 8.53125h443.734376c4.710937 0 8.53125-3.820313 8.53125-8.53125v-213.335937c14.132812-.015626 25.585937-11.464844 25.601562-25.597657v-25.601562c-.015625-14.132813-11.46875-25.585938-25.601562-25.597657zm-385.929688-13.128906c1.765625-1.40625 2.902344-3.457031 3.160156-5.699218.699219-6.300782 1.847656-12.542969 3.441406-18.679688.597657-2.269531.234376-4.6875-1.007812-6.679688-1.238281-1.996093-3.246094-3.390624-5.546875-3.855468-7.730469-1.589844-15.644531-2.101563-23.511719-1.53125 11.613282-11.195313 25.785156-19.390625 41.28125-23.878906 2.132813-.601563 3.945313-2.007813 5.058594-3.925782 3.097656-5.34375 6.539062-10.480468 10.308594-15.375 1.425781-1.851562 2.03125-4.203125 1.679687-6.511718-.355469-2.304688-1.640625-4.367188-3.558593-5.703126-6.699219-4.695312-14.046876-8.394531-21.808594-10.988281 15.488281-6.070312 32.25-8.15625 48.75-6.066406 2.199218.289063 4.421875-.285156 6.203125-1.601563 4.625-3.433593 9.457031-6.574218 14.46875-9.410156 2.023437-1.144531 3.492187-3.0625 4.066406-5.308594.578125-2.25.210937-4.636718-1.011719-6.613281-4.542968-7.363281-10.171875-14-16.691406-19.691406 17.328125.3125 34.269531 5.167969 49.132812 14.074219 1.957032 1.1875 4.3125 1.539062 6.53125.976562 4.992188-1.253906 10.066407-2.152344 15.1875-2.6875 2.304688-.246094 4.40625-1.417968 5.828126-3.246094 1.421874-1.828124 2.039062-4.15625 1.707031-6.449218-1.308594-9.152344-4.078125-18.03125-8.207031-26.304688 16.566406 7.144532 30.832031 18.734375 41.214843 33.488282 1.308594 1.878906 3.308594 3.152343 5.5625 3.542968 4.589844.761719 9.136719 1.777344 13.613281 3.035156 2.191407.628907 4.539063.355469 6.523438-.761718 1.988281-1.117188 3.445312-2.980469 4.046875-5.175782 2.628906-9.472656 3.621094-19.328124 2.933594-29.136718 13.074219 13.492187 22.019531 30.441406 25.785156 48.847656.457031 2.300781 1.84375 4.3125 3.832031 5.5625 3.171875 1.984375 6.527344 4.351562 9.976563 7.023438 3.660156 2.84375 8.925781 2.242187 11.847656-1.359376 6.578125-8.046874 11.644531-17.21875 14.949219-27.070312 7.117187 17.917969 8.792968 37.539062 4.816406 56.40625-.507812 2.378906.019531 4.867188 1.453125 6.832031 2.101563 2.933594 4.042969 5.980469 5.816406 9.125 2.289063 3.972657 7.304688 5.429688 11.367188 3.300781 9.570312-4.992187 18.128906-11.726562 25.230469-19.859374-.355469 19.5-6.46875 38.453124-17.570313 54.484374-1.40625 1.992188-1.894531 4.488282-1.34375 6.863282.792969 3.40625 1.429687 6.820312 1.90625 10.308594.636719 4.503906 4.683594 7.730468 9.21875 7.34375 10.925781-.929688 21.582031-3.917969 31.402344-8.800782-3.929688 8.746094-9.035157 16.917969-15.171875 24.285156h-40.804688c0-75.40625-61.128906-136.535156-136.535156-136.535156s-136.535156 61.128906-136.535156 136.535156h-32.304688c3.984375-4.8125 8.441406-9.210937 13.308594-13.128906zm189.664062 13.128906c0-18.851562-15.28125-34.136718-34.132812-34.136718s-34.132812 15.285156-34.132812 34.136718h-85.332032c0-65.980468 53.484375-119.46875 119.464844-119.46875s119.464844 53.488282 119.464844 119.46875zm-51.199218 0c0-9.425781 7.640625-17.070312 17.066406-17.070312s17.066406 7.644531 17.066406 17.070312zm230.398437 281.597657h-426.664062v-204.800781h426.664062zm25.601563-230.398438c-.007813 4.710938-3.824219 8.527344-8.535156 8.53125h-460.796876c-4.710937-.003906-8.527343-3.820312-8.535156-8.53125v-25.601562c.007813-4.710938 3.824219-8.527344 8.535156-8.53125h460.796876c4.710937.003906 8.527343 3.820312 8.535156 8.53125zm0 0" data-original="#000000" class="active-path" data-old_color="#000000" fill="#FFFFFF"/><path d="m68.265625 336.976562c4.714844 0 8.535156-3.824218 8.535156-8.535156v-17.066406c0-4.714844-3.820312-8.535156-8.535156-8.535156-4.710937 0-8.53125 3.820312-8.53125 8.535156v17.066406c0 4.710938 3.820313 8.535156 8.53125 8.535156zm0 0" data-original="#000000" class="active-path" data-old_color="#000000" fill="#FFFFFF"/><path d="m68.265625 473.507812c4.714844 0 8.535156-3.820312 8.535156-8.53125v-102.402343c0-4.710938-3.820312-8.53125-8.535156-8.53125-4.710937 0-8.53125 3.820312-8.53125 8.53125v102.402343c0 4.710938 3.820313 8.53125 8.53125 8.53125zm0 0" data-original="#000000" class="active-path" data-old_color="#000000" fill="#FFFFFF"/><path d="m219.796875 115.363281c-26.695313 8.949219-47.757813 29.734375-57.054687 56.308594-1.132813 2.832031-.667969 6.050781 1.214843 8.449219 1.886719 2.394531 4.90625 3.605468 7.925781 3.171875 3.019532-.4375 5.574219-2.449219 6.707032-5.277344 15.105468-37.761719 44.164062-45.785156 45.394531-46.105469 4.566406-1.15625 7.335937-5.796875 6.179687-10.367187-1.15625-4.570313-5.800781-7.335938-10.367187-6.179688zm0 0" data-original="#000000" class="active-path" data-old_color="#000000" fill="#FFFFFF"/><path d="m256 115.109375c0 4.710937-3.820312 8.53125-8.535156 8.53125-4.710938 0-8.53125-3.820313-8.53125-8.53125 0-4.714844 3.820312-8.535156 8.53125-8.535156 4.714844 0 8.535156 3.820312 8.535156 8.535156zm0 0" data-original="#000000" class="active-path" data-old_color="#000000" fill="#FFFFFF"/><path d="m384 473.507812h51.199219c9.421875-.007812 17.058593-7.644531 17.066406-17.066406v-25.601562c-.007813-9.421875-7.644531-17.054688-17.066406-17.066406h-51.199219c-9.421875.011718-17.058594 7.644531-17.066406 17.066406v25.601562c.007812 9.421875 7.644531 17.058594 17.066406 17.066406zm0-42.667968h51.199219l.011719 25.601562h-51.210938zm0 0" data-original="#000000" class="active-path" data-old_color="#000000" fill="#FFFFFF"/><path d="m409.601562 396.707031c18.851563 0 34.132813-15.28125 34.132813-34.132812 0-18.851563-15.28125-34.132813-34.132813-34.132813-18.851562 0-34.136718 15.28125-34.136718 34.132813.023437 18.84375 15.292968 34.113281 34.136718 34.132812zm0-51.199219c9.425782 0 17.066407 7.640626 17.066407 17.066407s-7.640625 17.066406-17.066407 17.066406c-9.425781 0-17.066406-7.640625-17.066406-17.066406.007813-9.421875 7.644532-17.058594 17.066406-17.066407zm0 0" data-original="#000000" class="active-path" data-old_color="#000000" fill="#FFFFFF"/></g> </svg>
